<svg xmlns="http://www.w3.org/2000/svg" xmlns:xlink="http://www.w3.org/1999/xlink" width="500" zoomAndPan="magnify" viewBox="0 0 375 374.999991" height="500" preserveAspectRatio="xMidYMid meet" version="1.0"><defs><g/></defs><g fill="#000000" fill-opacity="1"><g transform="translate(99.567793, 227.411542)"><g><path d="M 81.226562 -98.160156 L 65.398438 -98.160156 C 64.539062 -98.160156 63.925781 -97.546875 63.925781 -97.054688 L 63.925781 -33.128906 L 18.652344 -97.792969 C 18.527344 -98.039062 17.792969 -98.160156 17.546875 -98.160156 L 1.226562 -98.160156 C 0.613281 -98.160156 0 -97.546875 0 -97.054688 L 0 -23.558594 L 18.773438 -23.558594 L 18.773438 -65.03125 L 63.925781 -0.367188 C 64.050781 -0.121094 64.785156 0 65.03125 0 L 81.226562 0 C 82.085938 0 82.578125 -0.613281 82.578125 -1.105469 L 82.578125 -97.054688 C 82.578125 -97.546875 82.085938 -98.160156 81.226562 -98.160156 Z M 81.226562 -98.160156 "/></g></g></g><g fill="#000000" fill-opacity="1"><g transform="translate(182.623572, 275.504569)"><g><path d="M 76.535156 -1.800781 L 38.027344 -47.144531 L 76.175781 -94.167969 C 77.011719 -95.007812 76.414062 -95.96875 75.09375 -95.96875 L 55.539062 -95.96875 C 55.300781 -95.96875 54.582031 -95.726562 54.460938 -95.605469 L 18.355469 -51.222656 L 18.355469 -94.886719 C 18.355469 -95.367188 17.875 -95.96875 17.152344 -95.96875 L 1.320312 -95.96875 C 0.601562 -95.96875 0 -95.367188 0 -94.886719 L 0 -5.878906 C 0 -5.878906 23.390625 -32.390625 25.792969 -34.90625 L 53.742188 -0.359375 C 53.863281 -0.238281 54.582031 0 54.820312 0 L 75.453125 0 C 76.652344 0 77.253906 -0.839844 76.535156 -1.800781 Z M 76.535156 -1.800781 "/></g></g></g><g fill="#000000" fill-opacity="1"><g transform="translate(108.210246, 244.636448)"><g><path d="M 3.25 -10.03125 L 3.25 0 L 0.765625 0 L 0.765625 -10.03125 Z M 3.25 -10.03125 "/></g></g></g><g fill="#000000" fill-opacity="1"><g transform="translate(120.945264, 244.636448)"><g><path d="M 6.03125 -5.171875 L 9.796875 0 L 6.65625 0 L 3.921875 -4.09375 L 3.25 -4.09375 L 3.25 0 L 0.765625 0 L 0.765625 -10.03125 L 3.25 -10.03125 L 3.25 -6.078125 L 3.921875 -6.078125 L 6.6875 -10.03125 L 9.65625 -10.03125 Z M 6.03125 -5.171875 "/></g></g></g><g fill="#000000" fill-opacity="1"><g transform="translate(139.26294, 244.636448)"><g><path d="M 3.25 -10.03125 L 3.25 0 L 0.765625 0 L 0.765625 -10.03125 Z M 3.25 -10.03125 "/></g></g></g><g fill="#000000" fill-opacity="1"><g transform="translate(151.997959, 244.636448)"><g><path d="M 8.140625 -10.03125 L 8.140625 -7.796875 L 5.40625 -7.796875 L 5.40625 0 L 2.921875 0 L 2.921875 -7.796875 L 0.1875 -7.796875 L 0.1875 -10.03125 Z M 8.140625 -10.03125 "/></g></g></g><g fill="#000000" fill-opacity="1"><g transform="translate(169.051943, 244.636448)"><g><path d="M 2.5625 0 L -0.046875 0 L 3.65625 -10.03125 L 6.234375 -10.03125 L 9.859375 0 L 7.265625 0 L 6.734375 -1.6875 L 3.09375 -1.6875 Z M 4.890625 -7.5625 C 4.804688 -7.269531 4.710938 -6.953125 4.609375 -6.609375 C 4.515625 -6.273438 4.347656 -5.726562 4.109375 -4.96875 L 3.703125 -3.640625 L 6.109375 -3.640625 L 5.703125 -4.96875 C 5.554688 -5.375 5.414062 -5.800781 5.28125 -6.25 C 5.144531 -6.707031 5.015625 -7.144531 4.890625 -7.5625 Z M 4.890625 -7.5625 "/></g></g></g><g fill="#000000" fill-opacity="1"><g transform="translate(218.415517, 175.968197)"><g><path d="M 2.5625 0 L -0.046875 0 L 3.65625 -10.03125 L 6.234375 -10.03125 L 9.859375 0 L 7.265625 0 L 6.734375 -1.6875 L 3.09375 -1.6875 Z M 4.890625 -7.5625 C 4.804688 -7.269531 4.710938 -6.953125 4.609375 -6.609375 C 4.515625 -6.273438 4.347656 -5.726562 4.109375 -4.96875 L 3.703125 -3.640625 L 6.109375 -3.640625 L 5.703125 -4.96875 C 5.554688 -5.375 5.414062 -5.800781 5.28125 -6.25 C 5.144531 -6.707031 5.015625 -7.144531 4.890625 -7.5625 Z M 4.890625 -7.5625 "/></g></g></g><g fill="#000000" fill-opacity="1"><g transform="translate(229.069154, 175.968197)"><g><path d="M 4.578125 -3.75 L 2.546875 -4.21875 C 1.734375 -4.414062 1.179688 -4.710938 0.890625 -5.109375 C 0.597656 -5.503906 0.453125 -6.066406 0.453125 -6.796875 C 0.453125 -7.960938 0.753906 -8.816406 1.359375 -9.359375 C 1.972656 -9.910156 2.925781 -10.1875 4.21875 -10.1875 C 4.757812 -10.1875 5.234375 -10.164062 5.640625 -10.125 C 6.054688 -10.082031 6.441406 -10.007812 6.796875 -9.90625 L 6.796875 -7.6875 C 5.984375 -7.820312 5.425781 -7.898438 5.125 -7.921875 C 4.820312 -7.941406 4.503906 -7.953125 4.171875 -7.953125 C 3.722656 -7.953125 3.394531 -7.875 3.1875 -7.71875 C 2.988281 -7.570312 2.890625 -7.320312 2.890625 -6.96875 C 2.890625 -6.800781 2.921875 -6.671875 2.984375 -6.578125 C 3.054688 -6.492188 3.179688 -6.429688 3.359375 -6.390625 L 5.28125 -5.9375 C 5.832031 -5.8125 6.226562 -5.6875 6.46875 -5.5625 C 6.71875 -5.4375 6.921875 -5.28125 7.078125 -5.09375 C 7.242188 -4.882812 7.363281 -4.617188 7.4375 -4.296875 C 7.519531 -3.984375 7.5625 -3.597656 7.5625 -3.140625 C 7.5625 -1.972656 7.253906 -1.128906 6.640625 -0.609375 C 6.023438 -0.0976562 5.066406 0.15625 3.765625 0.15625 C 3.097656 0.15625 2.460938 0.113281 1.859375 0.03125 C 1.265625 -0.0390625 0.804688 -0.132812 0.484375 -0.25 L 0.484375 -2.609375 C 0.910156 -2.472656 1.414062 -2.363281 2 -2.28125 C 2.582031 -2.195312 3.171875 -2.15625 3.765625 -2.15625 C 4.234375 -2.15625 4.554688 -2.210938 4.734375 -2.328125 C 4.921875 -2.453125 5.015625 -2.691406 5.015625 -3.046875 C 5.015625 -3.265625 4.984375 -3.425781 4.921875 -3.53125 C 4.859375 -3.632812 4.742188 -3.707031 4.578125 -3.75 Z M 4.578125 -3.75 "/></g></g></g><g fill="#000000" fill-opacity="1"><g transform="translate(237.707269, 175.968197)"><g><path d="M 3.25 0 L 0.765625 0 L 0.765625 -10.03125 L 3.25 -10.03125 L 3.25 -6.203125 L 6.765625 -6.203125 L 6.765625 -10.03125 L 9.25 -10.03125 L 9.25 0 L 6.765625 0 L 6.765625 -3.96875 L 3.25 -3.96875 Z M 3.25 0 "/></g></g></g><g fill="#000000" fill-opacity="1"><g transform="translate(248.53686, 175.968197)"><g><path d="M 6.984375 -10.03125 L 9.546875 -10.03125 L 6.046875 -3.640625 L 6.046875 0 L 3.5625 0 L 3.5625 -3.640625 L -0.03125 -10.03125 L 2.796875 -10.03125 L 4.8125 -5.84375 Z M 6.984375 -10.03125 "/></g></g></g><g fill="#000000" fill-opacity="1"><g transform="translate(258.902563, 175.968197)"><g><path d="M 2.5625 0 L -0.046875 0 L 3.65625 -10.03125 L 6.234375 -10.03125 L 9.859375 0 L 7.265625 0 L 6.734375 -1.6875 L 3.09375 -1.6875 Z M 4.890625 -7.5625 C 4.804688 -7.269531 4.710938 -6.953125 4.609375 -6.609375 C 4.515625 -6.273438 4.347656 -5.726562 4.109375 -4.96875 L 3.703125 -3.640625 L 6.109375 -3.640625 L 5.703125 -4.96875 C 5.554688 -5.375 5.414062 -5.800781 5.28125 -6.25 C 5.144531 -6.707031 5.015625 -7.144531 4.890625 -7.5625 Z M 4.890625 -7.5625 "/></g></g></g><g fill="#000000" fill-opacity="1"><g transform="translate(269.556202, 175.968197)"><g><path d="M 3.25 -2.8125 L 3.25 0 L 0.765625 0 L 0.765625 -10.03125 L 4.4375 -10.03125 C 5.976562 -10.03125 7.070312 -9.757812 7.71875 -9.21875 C 8.375 -8.6875 8.703125 -7.785156 8.703125 -6.515625 C 8.703125 -5.253906 8.359375 -4.320312 7.671875 -3.71875 C 6.984375 -3.113281 5.921875 -2.8125 4.484375 -2.8125 Z M 6.1875 -6.515625 C 6.1875 -6.984375 6.054688 -7.3125 5.796875 -7.5 C 5.546875 -7.695312 5.09375 -7.796875 4.4375 -7.796875 L 3.25 -7.796875 L 3.25 -4.984375 L 4.4375 -4.984375 C 5.101562 -4.984375 5.5625 -5.09375 5.8125 -5.3125 C 6.0625 -5.539062 6.1875 -5.941406 6.1875 -6.515625 Z M 6.1875 -6.515625 "/></g></g></g></svg>