<svg xmlns="http://www.w3.org/2000/svg" xmlns:xlink="http://www.w3.org/1999/xlink" width="800" zoomAndPan="magnify" viewBox="0 0 600 599.999999" height="800" preserveAspectRatio="xMidYMid meet" version="1.0"><defs><g/><clipPath id="e8d0d949b0"><path d="M 288.945312 117.960938 L 319.410156 117.960938 L 319.410156 148.425781 L 288.945312 148.425781 Z M 288.945312 117.960938 " clip-rule="nonzero"/></clipPath><clipPath id="1812015536"><path d="M 304.175781 117.960938 C 295.761719 117.960938 288.945312 124.78125 288.945312 133.191406 C 288.945312 141.605469 295.761719 148.425781 304.175781 148.425781 C 312.589844 148.425781 319.410156 141.605469 319.410156 133.191406 C 319.410156 124.78125 312.589844 117.960938 304.175781 117.960938 Z M 304.175781 117.960938 " clip-rule="nonzero"/></clipPath><clipPath id="1ad8e4c622"><path d="M 218.28125 286.988281 L 238.136719 286.988281 L 238.136719 306.839844 L 218.28125 306.839844 Z M 218.28125 286.988281 " clip-rule="nonzero"/></clipPath><clipPath id="640ac2a8f6"><path d="M 228.210938 286.988281 C 222.726562 286.988281 218.28125 291.429688 218.28125 296.914062 C 218.28125 302.394531 222.726562 306.839844 228.210938 306.839844 C 233.691406 306.839844 238.136719 302.394531 238.136719 296.914062 C 238.136719 291.429688 233.691406 286.988281 228.210938 286.988281 Z M 228.210938 286.988281 " clip-rule="nonzero"/></clipPath><clipPath id="ac30374923"><path d="M 207.976562 443.582031 L 233.765625 443.582031 L 233.765625 469.367188 L 207.976562 469.367188 Z M 207.976562 443.582031 " clip-rule="nonzero"/></clipPath><clipPath id="157cca2ac1"><path d="M 220.871094 443.582031 C 213.75 443.582031 207.976562 449.355469 207.976562 456.476562 C 207.976562 463.59375 213.75 469.367188 220.871094 469.367188 C 227.992188 469.367188 233.765625 463.59375 233.765625 456.476562 C 233.765625 449.355469 227.992188 443.582031 220.871094 443.582031 Z M 220.871094 443.582031 " clip-rule="nonzero"/></clipPath></defs><g fill="#f8f8f8" fill-opacity="1"><g transform="translate(241.976548, 468.280992)"><g><path d="M 32.90625 -27.796875 C 31.96875 -27.796875 31.257812 -27.390625 30.78125 -26.578125 C 30.5625 -26.234375 30.4375 -25.832031 30.40625 -25.375 L 30.40625 -4.59375 C 30.40625 -2.789062 30.53125 -1.273438 30.78125 -0.046875 L 30.890625 0.5625 L 30.53125 0.5625 L 10.1875 -18.8125 L 10.1875 -2.8125 C 10.1875 -2.144531 10.425781 -1.578125 10.90625 -1.109375 C 11.394531 -0.640625 11.972656 -0.40625 12.640625 -0.40625 L 13.40625 -0.40625 L 13.40625 0 L 1.203125 0 L 1.203125 -0.40625 L 1.9375 -0.40625 C 2.632812 -0.40625 3.222656 -0.640625 3.703125 -1.109375 C 4.191406 -1.578125 4.4375 -2.160156 4.4375 -2.859375 L 4.4375 -23.765625 C 4.4375 -25.535156 4.3125 -27.015625 4.0625 -28.203125 L 3.984375 -28.796875 L 4.34375 -28.796875 L 24.6875 -9.421875 L 24.6875 -25.34375 C 24.664062 -26.039062 24.410156 -26.625 23.921875 -27.09375 C 23.441406 -27.5625 22.863281 -27.796875 22.1875 -27.796875 L 21.46875 -27.796875 L 21.46875 -28.203125 L 33.671875 -28.203125 L 33.671875 -27.796875 Z M 32.90625 -27.796875 "/></g></g></g><g fill="#f8f8f8" fill-opacity="1"><g transform="translate(276.816414, 468.280992)"><g><path d="M 1.375 -0.40625 L 1.859375 -0.40625 C 2.492188 -0.40625 3.039062 -0.613281 3.5 -1.03125 C 3.957031 -1.445312 4.1875 -1.945312 4.1875 -2.53125 L 4.1875 -21.625 C 4.1875 -22.21875 3.957031 -22.722656 3.5 -23.140625 C 3.039062 -23.554688 2.492188 -23.765625 1.859375 -23.765625 L 1.375 -23.765625 L 1.375 -24.171875 L 12.8125 -24.171875 L 12.8125 -23.765625 L 12.328125 -23.765625 C 11.710938 -23.765625 11.175781 -23.5625 10.71875 -23.15625 C 10.257812 -22.757812 10.015625 -22.265625 9.984375 -21.671875 L 9.984375 -2.53125 C 10.015625 -1.914062 10.257812 -1.40625 10.71875 -1 C 11.175781 -0.601562 11.710938 -0.40625 12.328125 -0.40625 L 12.8125 -0.40625 L 12.8125 0 L 1.375 0 Z M 1.375 -0.40625 "/></g></g></g><g fill="#f8f8f8" fill-opacity="1"><g transform="translate(290.994029, 468.280992)"><g><path d="M 1.453125 0 L 1.453125 -0.40625 L 1.859375 -0.40625 C 2.710938 -0.40625 3.351562 -0.753906 3.78125 -1.453125 C 3.96875 -1.773438 4.078125 -2.132812 4.109375 -2.53125 L 4.109375 -21.625 C 4.078125 -22.457031 3.703125 -23.078125 2.984375 -23.484375 C 2.628906 -23.671875 2.253906 -23.765625 1.859375 -23.765625 L 1.40625 -23.765625 L 1.40625 -24.171875 L 12.5625 -24.171875 L 12.5625 -23.765625 L 12.125 -23.765625 C 11.53125 -23.765625 11.007812 -23.5625 10.5625 -23.15625 C 10.125 -22.757812 9.894531 -22.265625 9.875 -21.671875 L 9.875 -2.53125 C 9.894531 -1.945312 10.117188 -1.445312 10.546875 -1.03125 C 10.984375 -0.613281 11.507812 -0.40625 12.125 -0.40625 L 12.53125 -0.40625 L 12.5625 0 Z M 28 0 L 24.890625 0 C 21.160156 0 18.503906 -1.035156 16.921875 -3.109375 C 16.785156 -3.316406 16.191406 -4.132812 15.140625 -5.5625 C 12.429688 -9.34375 11.078125 -11.25 11.078125 -11.28125 L 19.328125 -22.234375 C 19.628906 -22.609375 19.6875 -22.960938 19.5 -23.296875 C 19.3125 -23.640625 18.988281 -23.8125 18.53125 -23.8125 L 18.171875 -23.8125 L 18.171875 -24.171875 L 26.390625 -24.171875 L 26.390625 -23.8125 L 26.21875 -23.8125 C 24.769531 -23.8125 23.5625 -23.328125 22.59375 -22.359375 L 15.90625 -14.46875 L 24.375 -2.703125 C 25.445312 -1.171875 26.65625 -0.390625 28 -0.359375 Z M 28 0 "/></g></g></g><g fill="#f8f8f8" fill-opacity="1"><g transform="translate(318.100653, 468.280992)"><g><path d="M 1.375 -0.40625 L 1.859375 -0.40625 C 2.492188 -0.40625 3.039062 -0.613281 3.5 -1.03125 C 3.957031 -1.445312 4.1875 -1.945312 4.1875 -2.53125 L 4.1875 -21.625 C 4.1875 -22.21875 3.957031 -22.722656 3.5 -23.140625 C 3.039062 -23.554688 2.492188 -23.765625 1.859375 -23.765625 L 1.375 -23.765625 L 1.375 -24.171875 L 12.8125 -24.171875 L 12.8125 -23.765625 L 12.328125 -23.765625 C 11.710938 -23.765625 11.175781 -23.5625 10.71875 -23.15625 C 10.257812 -22.757812 10.015625 -22.265625 9.984375 -21.671875 L 9.984375 -2.53125 C 10.015625 -1.914062 10.257812 -1.40625 10.71875 -1 C 11.175781 -0.601562 11.710938 -0.40625 12.328125 -0.40625 L 12.8125 -0.40625 L 12.8125 0 L 1.375 0 Z M 1.375 -0.40625 "/></g></g></g><g fill="#f8f8f8" fill-opacity="1"><g transform="translate(332.278268, 468.280992)"><g><path d="M 23.328125 -18.453125 L 23.328125 -18.8125 C 23.328125 -19.96875 23.003906 -20.878906 22.359375 -21.546875 C 21.710938 -22.222656 20.8125 -22.570312 19.65625 -22.59375 L 14.984375 -22.59375 L 14.984375 -2.5 C 15.015625 -1.90625 15.242188 -1.40625 15.671875 -1 C 16.097656 -0.601562 16.609375 -0.40625 17.203125 -0.40625 L 17.640625 -0.40625 L 17.640625 0 L 6.53125 0 L 6.53125 -0.40625 L 6.921875 -0.40625 C 7.546875 -0.40625 8.070312 -0.601562 8.5 -1 C 8.925781 -1.40625 9.140625 -1.914062 9.140625 -2.53125 L 9.140625 -22.59375 L 4.515625 -22.59375 C 3.328125 -22.570312 2.410156 -22.222656 1.765625 -21.546875 C 1.128906 -20.878906 0.8125 -19.96875 0.8125 -18.8125 L 0.8125 -18.453125 L 0.40625 -18.453125 L 0.40625 -24.8125 C 0.78125 -24.675781 1.398438 -24.539062 2.265625 -24.40625 C 3.140625 -24.269531 3.925781 -24.203125 4.625 -24.203125 L 19.5 -24.203125 C 20.675781 -24.203125 21.644531 -24.289062 22.40625 -24.46875 C 23.175781 -24.644531 23.613281 -24.757812 23.71875 -24.8125 L 23.71875 -18.453125 Z M 23.328125 -18.453125 "/></g></g></g><g fill="#f8f8f8" fill-opacity="1"><g transform="translate(356.40437, 468.280992)"><g><path d="M 26.828125 -0.40625 L 27.15625 -0.40625 L 27.15625 0 L 15.3125 0 L 15.3125 -0.40625 L 15.640625 -0.40625 C 16.171875 -0.40625 16.554688 -0.566406 16.796875 -0.890625 C 17.046875 -1.210938 17.171875 -1.503906 17.171875 -1.765625 C 17.171875 -2.035156 17.113281 -2.320312 17 -2.625 L 15.4375 -6.328125 L 6.890625 -6.328125 L 5.28125 -2.578125 C 5.175781 -2.304688 5.125 -2.03125 5.125 -1.75 C 5.125 -1.46875 5.25 -1.171875 5.5 -0.859375 C 5.757812 -0.554688 6.15625 -0.40625 6.6875 -0.40625 L 7.015625 -0.40625 L 7.015625 0 L -1.046875 0 L -1.046875 -0.40625 L -0.71875 -0.40625 C -0.15625 -0.40625 0.40625 -0.578125 0.96875 -0.921875 C 1.53125 -1.273438 1.988281 -1.800781 2.34375 -2.5 L 10.6875 -20.375 C 11.863281 -23.039062 12.476562 -24.679688 12.53125 -25.296875 L 12.890625 -25.296875 L 23.6875 -2.65625 C 24.039062 -1.875 24.503906 -1.300781 25.078125 -0.9375 C 25.660156 -0.582031 26.242188 -0.40625 26.828125 -0.40625 Z M 7.578125 -7.890625 L 14.75 -7.890625 L 11.203125 -16.3125 Z M 7.578125 -7.890625 "/></g></g></g><g fill="#f8f8f8" fill-opacity="1"><g transform="translate(212.79812, 357.003338)"><g><path d="M 72.65625 -2.734375 L 76.21875 -2.734375 L 76.21875 0 L 16.390625 0 L 16.390625 -2.734375 L 19.9375 -2.734375 C 24.675781 -2.734375 28.726562 -4.414062 32.09375 -7.78125 C 35.46875 -11.15625 37.242188 -15.207031 37.421875 -19.9375 L 37.421875 -171.546875 C 37.242188 -176.285156 35.46875 -180.289062 32.09375 -183.5625 C 28.726562 -186.84375 24.675781 -188.484375 19.9375 -188.484375 L 16.390625 -188.484375 L 16.390625 -191.21875 L 76.21875 -191.21875 L 76.21875 -188.484375 L 72.65625 -188.484375 C 67.925781 -188.484375 63.875 -186.84375 60.5 -183.5625 C 57.132812 -180.289062 55.363281 -176.285156 55.1875 -171.546875 L 55.1875 -19.9375 C 55.1875 -15.207031 56.914062 -11.15625 60.375 -7.78125 C 63.832031 -4.414062 67.925781 -2.734375 72.65625 -2.734375 Z M 261.96875 40.96875 L 261.96875 43.703125 C 255.050781 45.347656 248.128906 46.171875 241.203125 46.171875 C 211.335938 46.171875 182.382812 31.234375 154.34375 1.359375 L 63.921875 -95.0625 L 128.390625 -175.921875 C 129.847656 -177.742188 130.578125 -179.382812 130.578125 -180.84375 C 130.578125 -182.300781 130.300781 -183.578125 129.75 -184.671875 C 128.300781 -187.398438 125.660156 -188.765625 121.828125 -188.765625 L 119.109375 -188.765625 L 119.109375 -191.21875 L 176.75 -191.21875 L 176.75 -188.765625 L 175.65625 -188.765625 C 163.632812 -188.765625 153.796875 -184.484375 146.140625 -175.921875 L 82.5 -102.4375 L 175.375 -3.28125 C 187.394531 9.644531 200.914062 20.25 215.9375 28.53125 C 230.96875 36.820312 246.3125 40.96875 261.96875 40.96875 Z M 261.96875 40.96875 "/></g></g></g><g clip-path="url(#e8d0d949b0)"><g clip-path="url(#1812015536)"><path fill="#ad9551" d="M 288.945312 117.960938 L 319.410156 117.960938 L 319.410156 148.425781 L 288.945312 148.425781 Z M 288.945312 117.960938 " fill-opacity="1" fill-rule="nonzero"/></g></g><g clip-path="url(#1ad8e4c622)"><g clip-path="url(#640ac2a8f6)"><path fill="#000000" d="M 218.28125 286.988281 L 238.136719 286.988281 L 238.136719 306.839844 L 218.28125 306.839844 Z M 218.28125 286.988281 " fill-opacity="1" fill-rule="nonzero"/></g></g><g clip-path="url(#ac30374923)"><g clip-path="url(#157cca2ac1)"><path fill="#ad9551" d="M 207.976562 443.582031 L 233.765625 443.582031 L 233.765625 469.367188 L 207.976562 469.367188 Z M 207.976562 443.582031 " fill-opacity="1" fill-rule="nonzero"/></g></g><g fill="#ad9551" fill-opacity="1"><g transform="translate(153.926521, 376.700595)"><g><path d="M 265.96875 38.328125 C 252.519531 42.523438 240.421875 43.28125 229.671875 40.59375 C 218.410156 37.5625 208.660156 32.851562 200.421875 26.46875 C 192.523438 20.082031 184.457031 12.4375 176.21875 3.53125 L 43.359375 -143.703125 L 43.359375 -17.640625 C 43.523438 -11.765625 46.128906 -7.394531 51.171875 -4.53125 C 53.523438 -3.1875 56.046875 -2.515625 58.734375 -2.515625 L 63.53125 -2.515625 L 63.53125 0 L 11.59375 0 L 11.59375 -2.515625 L 16.390625 -2.515625 C 20.585938 -2.515625 24.195312 -3.984375 27.21875 -6.921875 C 30.25 -9.867188 31.765625 -13.53125 31.765625 -17.90625 L 31.765625 -156.3125 C 30.921875 -157.488281 29.238281 -159.710938 26.71875 -162.984375 C 24.195312 -166.265625 22.09375 -168.910156 20.40625 -170.921875 C 18.726562 -172.941406 16.460938 -175.585938 13.609375 -178.859375 C 10.753906 -182.140625 8.109375 -184.789062 5.671875 -186.8125 C 3.234375 -188.832031 0.414062 -191.1875 -2.78125 -193.875 C -7.820312 -197.738281 -13.195312 -200.507812 -18.90625 -202.1875 C -24.625 -203.875 -29.457031 -204.71875 -33.40625 -204.71875 C -37.351562 -204.71875 -41.597656 -204.046875 -46.140625 -202.703125 L -47.140625 -205.21875 C -39.078125 -208.582031 -31.304688 -210.265625 -23.828125 -210.265625 C -16.347656 -210.265625 -9.914062 -209.378906 -4.53125 -207.609375 C 0.84375 -205.847656 6.640625 -202.695312 12.859375 -198.15625 C 19.078125 -193.613281 24.160156 -189.410156 28.109375 -185.546875 C 32.054688 -181.679688 36.804688 -176.640625 42.359375 -170.421875 L 169.421875 -29.25 L 169.421875 -158.578125 C 169.242188 -162.941406 167.644531 -166.59375 164.625 -169.53125 C 161.601562 -172.476562 157.988281 -173.953125 153.78125 -173.953125 L 149 -173.953125 L 149 -176.46875 L 200.921875 -176.46875 L 200.921875 -173.953125 L 196.390625 -173.953125 C 192.191406 -173.953125 188.578125 -172.476562 185.546875 -169.53125 C 182.523438 -166.59375 180.929688 -163.023438 180.765625 -158.828125 L 180.765625 -16.390625 C 182.441406 -14.535156 184.832031 -11.757812 187.9375 -8.0625 C 191.050781 -4.363281 193.238281 -1.757812 194.5 -0.25 C 195.757812 1.257812 197.648438 3.441406 200.171875 6.296875 C 202.691406 9.160156 204.832031 11.390625 206.59375 12.984375 C 208.363281 14.578125 210.550781 16.59375 213.15625 19.03125 C 215.757812 21.46875 218.195312 23.398438 220.46875 24.828125 C 222.738281 26.253906 225.300781 27.894531 228.15625 29.75 C 232.1875 32.101562 236.765625 33.867188 241.890625 35.046875 C 247.023438 36.222656 251.226562 36.8125 254.5 36.8125 C 257.78125 36.8125 261.269531 36.472656 264.96875 35.796875 Z M 265.96875 38.328125 "/></g></g></g></svg>